HIERARCHY
ROOT Hips
{
	OFFSET -3.958830 18.904000 13.208200
	CHANNELS 6 Xposition Yposition Zposition Zrotation Yrotation Xrotation 
	JOINT LHipJoint
	{
		OFFSET 0.000000 0.000000 0.000000
		CHANNELS 3 Zrotation Yrotation Xrotation
		JOINT LeftUpLeg
		{
			OFFSET 1.800000 -1.400000 0.085000
			CHANNELS 3 Zrotation Yrotation Xrotation
			JOINT LeftLeg
			{
				OFFSET 2.215000 -6.000000 0.000000
				CHANNELS 3 Zrotation Yrotation Xrotation
				JOINT LeftFoot
				{
					OFFSET 2.500000 -6.900000 0.000000
					CHANNELS 3 Zrotation Yrotation Xrotation
					JOINT LeftToeBase
					{
						OFFSET 0.200000 -0.500000 1.950000
						CHANNELS 3 Zrotation Yrotation Xrotation
						End Site
						{
							OFFSET 0.000000 0.000000 0.000000
						}
					}
				}
			}
		}
	}
	JOINT RHipJoint
	{
		OFFSET 0.000000 0.000000 0.000000
		CHANNELS 3 Zrotation Yrotation Xrotation
		JOINT RightUpLeg
		{
			OFFSET -1.800000 -1.400000 0.085000
			CHANNELS 3 Zrotation Yrotation Xrotation
			JOINT RightLeg
			{
				OFFSET -2.215000 -6.000000 0.000000
				CHANNELS 3 Zrotation Yrotation Xrotation
				JOINT RightFoot
				{
					OFFSET -2.500000 -6.900000 0.000000
					CHANNELS 3 Zrotation Yrotation Xrotation
					JOINT RightToeBase
					{
						OFFSET -0.200000 -0.500000 1.950000
						CHANNELS 3 Zrotation Yrotation Xrotation
						End Site
						{
							OFFSET 0.000000 0.000000 0.000000
						}
					}
				}
			}
		}
	}
	JOINT LowerBack
	{
		OFFSET 0.000000 0.000000 0.000000
		CHANNELS 3 Zrotation Yrotation Xrotation
		JOINT Spine
		{
			OFFSET -0.087000 1.940000 -0.288900
			CHANNELS 3 Zrotation Yrotation Xrotation
			JOINT Spine1
			{
				OFFSET 0.000000 1.950000 0.060000
				CHANNELS 3 Zrotation Yrotation Xrotation
				JOINT Neck
				{
					OFFSET 0.000000 0.000000 0.000000
					CHANNELS 3 Zrotation Yrotation Xrotation
					JOINT Neck1
					{
						OFFSET 0.000000 1.600000 0.340000
						CHANNELS 3 Zrotation Yrotation Xrotation
						JOINT Head
						{
							OFFSET 0.000000 1.667000 -0.240000
							CHANNELS 3 Zrotation Yrotation Xrotation
							End Site
							{
								OFFSET 0.000000 0.000000 0.000000
							}
						}
					}
				}
				JOINT LeftShoulder
				{
					OFFSET 0.000000 0.000000 0.000000
					CHANNELS 3 Zrotation Yrotation Xrotation
					JOINT LeftArm
					{
						OFFSET 2.700000 1.550000 -0.730000
						CHANNELS 3 Zrotation Yrotation Xrotation
						JOINT LeftForeArm
						{
							OFFSET 5.450000 0.000000 0.000000
							CHANNELS 3 Zrotation Yrotation Xrotation
							JOINT LeftHand
							{
								OFFSET 3.450000 0.000000 0.000000
								CHANNELS 3 Zrotation Yrotation Xrotation
								JOINT LeftHandIndex1
								{
									OFFSET 0.750000 0.000000 0.000000
									CHANNELS 3 Zrotation Yrotation Xrotation
									End Site
									{
										OFFSET 0.000000 0.000000 0.000000
									}
								}
							}
						}
					}
				}
				JOINT RightShoulder
				{
					OFFSET 0.000000 0.000000 0.000000
					CHANNELS 3 Zrotation Yrotation Xrotation
					JOINT RightArm
					{
						OFFSET -2.700000 1.550000 -0.730000
						CHANNELS 3 Zrotation Yrotation Xrotation
						JOINT RightForeArm
						{
							OFFSET -5.450000 0.000000 0.000000
							CHANNELS 3 Zrotation Yrotation Xrotation
							JOINT RightHand
							{
								OFFSET -3.450000 0.000000 0.000000
								CHANNELS 3 Zrotation Yrotation Xrotation
								JOINT RightHandIndex1
								{
									OFFSET -0.750000 0.000000 0.000000
									CHANNELS 3 Zrotation Yrotation Xrotation
									End Site
									{
										OFFSET 0.000000 0.000000 0.000000
									}
								}
							}
						}
					}
				}
			}
		}
	}
}
MOTION
Frames: 7
Frame Time: 0.016667
1.401940 11.559840 -0.280360 -95.134243 -81.916149 27.173665 -16.858557 4.700623 7.586047 41.299068 -6.898815 -80.914345 -53.920626 59.212149 67.130537 3.623405 14.678702 -0.132315 6.245940 4.981160 5.347170 18.295022 -1.604108 7.390017 -54.305378 4.295405 -43.253293 125.705555 13.965064 -1.735824 -3.221028 -2.489346 5.812105 2.190270 -4.699820 -0.792430 -3.742501 -3.130930 -12.992197 5.016273 -5.311361 122.443085 -16.380408 -4.120504 -9.188535 8.134156 -5.366110 -1.074942 -41.901840 39.020434 112.907534 1.838190 7.483050 -124.537480 43.210229 -64.079200 4.231590 -133.622867 -46.726189 19.682700 60.611154 40.954663 29.154501 3.354991 2.359296 2.028030 -2.206320 1.766770 0.031820 -56.986660 48.022993 -15.742414 127.817130 50.856351 9.541030 10.549209 -58.820173 -14.480442 -4.111113 -2.009327 2.329740 -0.444750 -3.387240 -2.422990 
1.374470 11.521420 -0.363790 -75.903352 -81.519225 7.766076 -17.028599 5.207455 7.602964 39.945981 -7.510851 -81.700789 -52.086524 60.111798 68.780204 3.409436 15.146853 -0.349951 6.124540 4.851810 5.254670 18.126453 -1.396833 7.307363 -56.932754 2.723451 -45.718575 128.055955 10.377324 -0.163751 -3.262180 -2.920585 5.656338 2.197670 -4.670290 -0.916380 -3.534778 -3.521462 -12.890027 7.759670 -6.558467 121.009488 -16.582505 -0.970480 -6.367580 10.304504 -6.622817 -1.634097 -40.756083 36.699143 113.982429 2.615740 3.756730 -123.860550 39.185287 -66.805397 8.736851 -135.198286 -46.380374 15.648165 72.024274 23.546140 33.265919 1.548780 0.983511 2.092270 -2.204210 1.626170 -0.102080 -57.806178 47.384429 -17.429708 128.545851 49.363611 13.886473 15.818232 -62.535153 -16.917216 -4.066602 -1.601492 2.185170 -0.310270 -3.174920 -2.520800 
1.346310 11.554610 -0.410920 -64.968270 -80.447939 -2.324274 -17.014167 5.294525 7.576692 38.897317 -7.328450 -82.903018 -49.220874 61.284014 71.331256 3.271536 15.703434 -0.570605 5.902810 4.613750 5.105840 18.160075 -1.253914 7.349511 -58.273917 0.847709 -46.592765 131.317366 10.678736 -0.170813 -3.146394 -2.743194 5.707057 2.109950 -4.645680 -1.000760 -3.597304 -3.376432 -12.884849 11.084774 -8.910374 119.316884 -18.055214 1.110975 -2.458128 12.140351 -5.790491 -3.161358 -36.968739 34.363747 118.398970 2.611830 0.480990 -126.639130 37.029650 -69.629430 11.196695 -132.287661 -47.364937 12.513271 77.488685 14.062580 28.721409 0.758292 0.524727 2.157720 -2.218050 1.518960 -0.225300 -59.298448 48.325513 -17.784899 139.623105 46.054128 17.789542 -27.634441 -59.951661 13.697419 -4.358873 -2.128472 2.040390 -0.180530 -2.922790 -2.605130 
1.327550 11.539770 -0.420850 -58.534006 -78.559061 -9.283674 -16.963276 5.660453 7.537214 37.225519 -8.974377 -83.746058 -43.539322 61.558992 76.687259 3.417702 16.767788 -0.893455 5.864110 4.584760 5.060400 18.196070 -1.158737 7.353175 -63.056918 0.051395 -45.935453 132.781022 9.169628 0.523931 -3.141261 -2.812128 5.645591 2.109980 -4.705320 -1.050620 -3.221141 -3.910058 -12.791110 15.217589 -12.108121 118.189707 -19.972742 3.309835 0.736535 15.692187 -6.611323 -4.988882 -35.735501 32.638721 120.210199 3.709430 -3.092320 -126.784070 34.596298 -74.062803 15.184048 -129.822767 -47.611889 6.239397 82.954079 0.294826 17.050188 0.173392 0.371050 2.134280 -2.279520 1.507720 -0.266370 -63.747183 45.066735 -22.345062 137.130262 44.894365 22.147812 7.524549 -64.378280 -7.484325 -4.317002 -1.328295 2.050150 -0.140650 -2.835810 -2.596540 
1.349970 11.523300 -0.552860 -51.109047 -75.569023 -17.482948 -16.842723 6.120652 7.447568 34.630750 -10.601074 -83.837711 -38.492578 61.081806 80.828469 4.008424 17.399938 -0.972904 6.048710 4.923590 5.078270 18.262519 -1.289341 7.157362 -60.102869 -3.635999 -49.140710 140.945108 -0.687801 1.526744 -3.555100 -3.573246 5.336441 2.185030 -4.867310 -1.017110 -2.746132 -4.607209 -12.646673 17.933356 -13.076964 117.862755 -17.311277 6.298450 1.646341 16.402500 -7.211748 -6.133655 -36.574010 32.182189 119.950081 7.796490 -3.425700 -125.909610 33.179396 -77.208409 17.917973 -128.659410 -47.782256 2.108211 85.598798 -13.010582 3.861112 -0.045519 0.714776 1.884240 -2.423700 1.678190 -0.149150 -64.473488 44.456807 -23.467396 133.462250 43.880003 24.814738 37.339018 -62.621757 -25.993037 -4.743347 -0.239218 2.386540 -0.259660 -2.991710 -2.379520 
1.357170 11.500430 -0.567370 -50.596149 -74.558386 -19.879709 -16.543570 6.694137 8.123884 33.412254 -11.320753 -83.696705 -34.165773 61.212095 85.649689 4.348435 18.249267 -1.117597 6.103430 4.936660 5.162800 18.326969 -1.951092 7.730068 -58.198096 -3.526320 -50.744940 143.286862 -5.343934 1.381066 -3.797046 -4.086090 5.130682 2.140710 -4.942800 -0.859190 -2.572163 -4.752827 -14.608172 17.121985 -13.871226 118.298313 -16.547550 7.838727 6.468751 18.102631 -3.169979 -8.888346 -30.975664 27.772921 121.008613 6.520320 -7.489490 -124.884780 26.040116 -75.553628 20.870899 -123.276535 -47.386265 -1.825730 88.322031 -14.957822 -1.558530 -0.387211 1.038406 1.811900 -2.426780 1.800350 -0.101000 -62.444696 39.857655 -18.183351 129.093574 48.119304 10.522917 73.917800 -75.665322 -34.386955 -21.387938 13.247632 2.532550 -0.361500 -3.044070 -2.331460 
1.321070 11.490360 -0.626100 -50.783138 -72.031374 -18.683486 -16.853158 6.070444 7.588833 33.445573 -10.928863 -85.151339 -33.295133 61.747629 86.915749 4.466772 18.719084 -1.110720 5.996690 4.633030 5.195430 18.154667 -1.869232 7.103616 -60.583223 -4.057557 -54.073930 143.329314 -9.021071 1.539685 -3.887734 -4.712909 4.855556 2.008200 -4.953410 -0.647700 -3.340175 -3.284821 -12.694242 16.717895 -13.949541 116.633199 -17.554036 7.004281 8.179485 23.442652 1.547879 -12.067226 -23.349790 25.651157 127.043979 4.894460 -13.734820 -125.042800 19.777157 -71.404344 26.721204 -115.156325 -45.993657 -9.526262 90.266951 -23.286412 -16.338521 -0.395368 1.431467 1.820870 -2.357470 1.783010 -0.145060 -66.518621 26.980369 -11.373882 140.832550 48.392744 -7.296508 -59.392212 -70.735569 141.450881 -4.821101 -2.324491 2.518860 -0.527710 -3.022860 -2.372010 
